<?xml version="1.0" standalone="no"?>
<!DOCTYPE svg PUBLIC "-//W3C//DTD SVG 20010904//EN"
 "http://www.w3.org/TR/2001/REC-SVG-20010904/DTD/svg10.dtd">
<svg version="1.0" xmlns="http://www.w3.org/2000/svg"
 width="300.000000pt" height="300.000000pt" viewBox="0 0 300.000000 300.000000"
 preserveAspectRatio="xMidYMid meet">

<g transform="translate(0.000000,300.000000) scale(0.100000,-0.100000)"
fill="#000000" stroke="none">
<path d="M946 2635 c-3 -9 -6 -28 -6 -42 0 -36 -29 -144 -46 -170 l-14 -22
-62 29 c-35 16 -83 33 -106 39 -39 8 -43 7 -38 -7 61 -178 66 -196 56 -207 -6
-7 -57 -14 -136 -19 -70 -3 -131 -9 -136 -12 -5 -3 17 -34 49 -67 68 -71 106
-129 98 -148 -3 -8 -44 -40 -90 -73 -47 -32 -85 -62 -85 -66 0 -4 24 -15 53
-25 63 -20 119 -57 137 -91 13 -23 11 -27 -48 -86 -70 -69 -69 -78 6 -98 80
-20 92 -27 92 -55 0 -15 -4 -34 -9 -43 -5 -9 -11 -30 -12 -47 l-4 -30 65 -5
65 -5 9 -47 c9 -50 23 -60 49 -33 13 13 11 23 -22 88 -39 77 -72 201 -70 265
0 26 8 6 25 -68 27 -118 79 -237 121 -276 15 -15 47 -35 71 -45 88 -38 65 -70
-88 -119 -58 -18 -113 -41 -123 -50 -16 -15 -76 -200 -109 -334 l-12 -49 39
-34 c22 -19 76 -61 120 -95 l79 -60 66 8 c36 4 108 8 160 8 81 0 102 -3 140
-23 61 -32 121 -82 151 -125 38 -56 55 -44 51 36 -6 109 -6 108 103 108 l93 0
72 -80 c40 -44 81 -82 92 -86 11 -3 39 0 64 7 l44 13 0 54 c0 88 5 92 119 92
92 0 99 -1 109 -23 7 -15 11 -17 11 -6 2 30 35 49 82 47 38 -2 52 4 102 40 68
51 71 68 25 152 l-31 57 90 89 c50 49 105 101 122 115 35 30 41 74 15 114 -13
20 -14 32 -4 79 7 36 9 93 4 163 -6 96 -11 114 -45 182 -95 188 -242 281 -444
281 -202 0 -336 -73 -455 -249 -39 -58 -50 -83 -50 -113 0 -21 -9 -64 -20 -95
-26 -75 -25 -109 5 -162 29 -49 31 -68 11 -90 -26 -28 -28 -64 -7 -98 21 -34
68 -54 80 -35 4 6 21 -9 40 -38 62 -92 180 -161 314 -185 39 -7 63 -14 52 -15
-38 -4 -80 1 -140 17 -112 29 -100 33 -139 -44 -19 -38 -38 -86 -41 -107 -5
-26 -15 -41 -31 -48 -33 -15 -50 2 -64 65 -20 84 -109 398 -126 445 -9 23 -22
42 -29 42 -8 0 -49 11 -92 24 -43 13 -90 27 -105 30 -24 5 -28 12 -28 39 0 29
5 35 35 46 19 7 49 30 67 52 23 29 44 43 75 51 48 12 52 23 23 61 -11 14 -20
30 -20 35 0 13 25 22 60 22 36 0 44 21 23 64 -9 19 -14 40 -11 48 3 7 31 22
62 32 87 30 88 37 6 91 -76 49 -81 65 -22 80 48 11 192 85 192 98 0 7 -38 28
-85 46 -47 19 -85 38 -85 43 0 5 36 43 80 85 44 41 78 79 75 83 -2 4 -47 13
-98 20 -52 7 -100 16 -107 20 -10 6 -1 28 34 84 25 42 46 81 46 86 0 4 4 10 9
12 5 2 13 15 16 30 l7 26 -91 -34 c-50 -19 -98 -34 -106 -34 -26 0 -38 42 -43
157 -3 62 -9 113 -14 113 -30 0 -125 -67 -190 -135 l-39 -40 -34 40 c-18 22
-53 64 -77 94 -48 60 -63 70 -72 46z m75 -621 c32 -30 52 -85 43 -119 -5 -21
-11 -22 -122 -21 -69 0 -120 4 -124 11 -13 18 -9 59 10 94 40 74 135 91 193
35z m306 -44 c29 -13 44 -27 49 -43 9 -39 1 -62 -21 -60 -11 1 -66 7 -123 14
l-103 13 3 40 c2 31 9 44 28 54 31 16 109 8 167 -18z m679 -621 c20 -40 18
-118 -5 -155 -22 -36 -71 -69 -118 -79 -77 -16 -170 43 -194 124 -12 40 -11
45 6 57 10 8 42 14 70 14 77 0 151 25 177 60 24 33 38 28 64 -21z m165 17 c25
-32 69 -46 171 -54 l83 -7 3 -35 c7 -93 -119 -174 -220 -141 -60 20 -118 95
-118 153 0 28 39 108 52 108 6 0 19 -11 29 -24z m-788 -396 c33 -68 62 -143
65 -165 4 -39 1 -44 -42 -82 -25 -22 -46 -47 -46 -54 0 -8 19 -31 42 -51 24
-20 39 -40 35 -44 -8 -8 -105 76 -106 93 -1 7 19 31 44 54 25 24 48 53 51 65
6 22 -58 186 -96 249 -10 17 -24 43 -30 59 -10 27 -9 28 6 15 10 -8 44 -70 77
-139z"/>
<path d="M2120 438 c0 -29 13 -58 25 -58 20 0 25 26 9 49 -17 23 -34 28 -34 9z"/>
</g>
</svg>
